<?xml version="1.0" standalone="no"?><!DOCTYPE svg PUBLIC "-//W3C//DTD SVG 1.1//EN" "http://www.w3.org/Graphics/SVG/1.1/DTD/svg11.dtd"><svg t="1545724636613" class="icon" style="" viewBox="0 0 1024 1024" version="1.1" xmlns="http://www.w3.org/2000/svg" p-id="4182" xmlns:xlink="http://www.w3.org/1999/xlink" width="200" height="200"><defs><style type="text/css"></style></defs><path d="M482.304 281.472m-186.304 0a186.304 186.304 0 1 0 372.608 0 186.304 186.304 0 1 0-372.608 0Z" fill="#656262" p-id="4183"></path><path d="M531.84 735.04c0-81.472 30.976-155.008 80.576-210.624a423.424 423.424 0 0 0-130.88-21.12 425.472 425.472 0 0 0-425.472 425.472h542.848a315.072 315.072 0 0 1-67.072-193.728z" fill="#656262" p-id="4184"></path><path d="M967.808 769.344l0.192-70.976s-46.848-9.28-47.616-12.416a215.296 215.296 0 0 0-2.88-10.24c5.504-10.176 31.872-32.512 31.872-32.512l-52.864-70.4s-34.24 28.224-42.752 32.256a130.944 130.944 0 0 0-12.544-4.16c-4.608-1.152-17.344-46.272-17.344-46.272l-71.104-0.576s-7.68 43.712-19.2 46.72c-3.84 1.152-7.68 2.56-11.52 4.352-8.512-4.16-42.752-32.768-42.752-32.768l-52.864 71.552s26.496 26.688 28.288 35.648a137.408 137.408 0 0 0-3.136 8.576 524.48 524.48 0 0 1-43.712 10.368l0.128 70.976s37.632 7.808 44.8 14.144c1.472 4.096 3.2 8.064 4.992 11.968-8.704 10.88-31.872 28.928-31.872 28.928l54.528 70.976s42.816-27.712 49.856-29.312c3.52 1.536 7.04 2.944 10.688 4.224 6.464 2.24 11.008 43.584 11.008 43.584l71.04 0.192s2.368-40.576 7.616-42.176a146.56 146.56 0 0 0 15.104-5.632c5.952 2.304 34.048 30.336 34.048 30.336l70.272-71.552s-26.048-17.984-33.28-27.712c1.984-4.032 3.776-8.192 5.376-12.416 2.24-6.656 45.632-15.68 45.632-15.68m-180.8 53.824a89.664 89.664 0 1 1 0-179.328 89.664 89.664 0 0 1 0 179.328M594.816 585.92z" fill="#656262" p-id="4185"></path></svg>