<?xml version="1.0" standalone="no"?><!DOCTYPE svg PUBLIC "-//W3C//DTD SVG 1.1//EN" "http://www.w3.org/Graphics/SVG/1.1/DTD/svg11.dtd"><svg t="1558750465554" class="icon" style="" viewBox="0 0 1099 1024" version="1.1" xmlns="http://www.w3.org/2000/svg" p-id="13819" xmlns:xlink="http://www.w3.org/1999/xlink" width="34.34375" height="32"><defs><style type="text/css"></style></defs><path d="M7.357522 0.000919zM109.011492 428.172662q0-12.974679 2.17929-22.697878t6.505715-16.227077q9.722281-10.829382 39.997143-10.829382h125.424037v501.696146H186.895395l-29.202674-1.072188q-8.650092 1.072189-15.673985 0t-12.421587-3.25148-9.722281-5.397694q-5.397694-5.397694-8.096081-14.600877t-2.698388-23.25097V687.637752q0-10.829382 4.325505-16.227077 0-2.17929 1.626199-3.251479t3.251479-1.626199 3.769658-1.626199 5.397694-1.072189q1.072189 0 2.698388-0.553091t3.769657-1.072189 4.325506-1.626199q1.072189-1.072189 2.698387-2.17929t3.769658-2.17929 3.251479-3.251479l3.251479-2.179291q7.576984-6.505714 11.90249-17.299265 3.251479-5.397694 4.325505-11.90249t1.072189-14.047786q0-22.697878-11.90249-35.672556-12.974679-12.974679-27.022464-15.153969-5.397694-1.072189-9.203184-2.698388t-5.951704-3.769658q-5.397694-4.325505-5.397694-15.153968V428.044036z m82.174496-95.149174v-25.950276q0-6.505714 1.626199-12.974679t4.878596-12.421587 8.650092-11.349399q2.17929-2.17929 3.769658-4.325505t3.769658-3.769658 4.325505-2.698387 3.769658-2.179291 3.769657-2.17929 4.325506-1.626199 4.325505-0.553091h140.578006v80.029199H191.145562z m802.264562 218.427914q-7.576984 2.17929-11.90249 8.650092-1.072189 2.17929-1.626199 4.325505t-1.072188 4.878597-0.553092 4.878597q0 7.576984 3.251479 15.153969 1.072189 2.17929 2.179291 3.769657t2.698387 3.251479 3.251479 2.179291 3.769658 1.626199q7.576984 3.251479 11.90249 11.902489 5.397694 9.722281 5.397694 19.479475t-2.17929 19.479474l-2.179291 4.325505-2.17929 2.17929-2.17929 4.325506-2.179291 2.17929q-5.397694 2.17929-9.203183 5.397694t-5.951704 7.023893-3.769658 7.023893-1.626199 7.576985 2.17929 9.722281 6.505715 10.275372 11.90249 10.275372q3.251479 2.17929 6.505714 10.829382 2.17929 4.325505 2.698388 8.096082t0.553091 8.096082v4.325505q0 3.251479-1.072189 5.397694l-2.17929 4.325506q-4.325505 5.397694-14.047786 5.397694h-52.970903q-5.397694 0-5.951704-1.072189t0.553091-3.251479l5.397694-5.397694q2.17929-3.251479 5.397694-7.576985 4.325505-14.047786-0.553091-23.804061t-16.746174-17.299265q-7.576984-4.325505-10.829382-11.90249-4.325505-8.650092-3.769658-17.854194t3.769658-15.673985q1.072189-3.251479 2.17929-4.878596t2.698388-3.251479 3.769658-2.698388q7.576984-3.251479 11.902489-10.829382l2.179291-4.325506v-4.325505l2.17929-4.325505v-4.325506q0-7.576984-3.251479-16.227076-3.251479-7.576984-8.650092-10.829382-8.650092-4.325505-12.974679-11.90249t-4.325505-18.372373l4.325505-19.479474q2.17929-4.325505 5.397694-8.096082t7.576985-7.023893q5.397694-4.325505 9.722281-10.829382 3.251479-6.505714 4.325505-15.153969 1.072189-7.576984-3.251479-16.227077-3.251479-7.576984-11.90249-11.902489-9.722281-5.397694-14.047786-15.153969t-4.325505-19.479474 4.325505-19.479475q4.325505-8.650092 11.90249-14.047786 5.397694-2.17929 9.203183-5.951704t6.505715-8.650092 2.698387-9.203183v-10.829383q0-4.325505-0.553091-9.203183t-1.626199-9.203183q-3.251479-9.722281-11.90249-17.299266-2.17929-2.17929-4.878597-3.769657t-5.397694-2.698388-5.951704-1.626199-6.505714-0.553091H435.49619v-78.922098h553.595779q4.325505 0 7.023893 1.072189t5.397695 3.769658 4.325505 5.397694 2.17929 6.505714 0 7.576985-1.626199 7.023893-3.251479 6.505714-5.397694 6.505714q-3.251479 2.17929-5.951704 5.397695t-4.878597 7.576984q-1.072189 1.072189-2.17929 3.251479v2.17929l-2.17929 4.325506v2.698387l-1.072189 3.769658q0 8.650092 3.251479 17.299265 2.17929 8.650092 10.829382 12.974679 10.829382 5.397694 16.227076 16.227076 2.17929 5.397694 3.769658 10.275372t1.626199 10.275373q0 3.251479-0.553091 7.023893t-1.626199 7.023893l-3.251479 5.397694q-5.397694 9.722281-15.153969 12.974678-3.251479 1.072189-5.397694 2.698388t-4.325506 2.698388-3.769657 2.698387-2.698388 3.769658q-4.325505 7.576984-5.397694 16.227076 0 9.722281 4.325505 18.372373t14.047786 14.047786q9.722281 6.505714 14.047786 16.227077t4.325506 20.552581l-5.397694 18.372373q-4.325505 8.650092-12.974679 9.722281z m-127.570252-15.153969q-11.90249 2.17929-18.372372 10.829382-2.17929 3.251479-3.769658 5.951705t-2.17929 5.951704-1.626199 6.505714q0 8.650092 5.397694 17.299265 5.397694 9.722281 16.227076 12.974679 9.722281 4.325505 15.153969 12.974679 4.325505 7.576984 5.397694 16.227076 0 3.251479-0.553091 5.397694t-0.553092 4.325505-1.072188 3.769658-2.179291 3.769658q-3.251479 8.650092-10.829382 11.90249-24.877168 12.974679-25.950276 29.202673-1.072189 17.299265 18.372373 27.022465 3.251479 2.17929 5.951704 3.769658t4.878597 3.769658 3.251479 5.397694q5.397694 8.650092 6.505714 18.372372 0 8.650092-3.251479 16.227077-4.325505 7.576984-12.974678 10.829382-11.90249 3.251479-18.372373 11.90249-2.17929 2.17929-3.769658 4.878597t-2.17929 5.397694-1.072189 5.951704 0 6.505714 1.626199 5.951705 3.251479 5.951704q5.397694 8.650092 17.299265 15.153969 4.325505 2.17929 7.023894 5.397694t4.878596 7.576984q0 2.17929 0.553092 3.769658t1.072188 3.769658 0.553092 4.325505v4.325506q-1.072189 4.325505-2.17929 7.576984t-3.25148 6.505714q-4.325505 6.505714-12.974678 6.505715H341.493624V378.518469h521.175621q2.17929 0 4.325505 0.553092t4.325505 2.17929 3.251479 3.769658q4.325505 6.505714 5.397694 14.047786 0 8.650092-3.251479 16.227076-4.325505 8.650092-12.974678 11.349399t-14.047786 10.275372q-3.251479 3.251479-4.878597 7.023893t-1.626199 8.096082q-1.072189 8.650092 3.251479 16.227076 2.17929 3.251479 4.325506 5.397694t5.397694 4.325506l7.576984 3.251479q4.325505 1.072189 8.096082 4.325505t5.951704 7.576984q5.397694 8.650092 5.397694 16.227077 1.072189 8.650092-3.251479 16.227076t-14.047786 10.829382z m-237.873394 67.054521q-4.325505 0-9.722281-1.072189t-3.251479-6.505714h1.072189l8.650092-14.047787q8.650092-12.974679 18.372372-24.877168 2.17929-3.251479 9.203184-12.421587t10.275372-13.528689q9.722281-12.974679 10.829382-15.153969 2.17929-2.17929 1.626199-5.397694t-2.17929-6.505714-4.878597-6.505715q-1.072189-1.072189-3.251479-2.698387t-5.397694-3.769658q-2.17929-2.17929-4.878597-3.769658t-5.951704-2.698387q-7.576984-2.17929-10.829383-1.072189-4.325505 3.251479-8.650092 9.72228-6.505714 9.722281-9.72228 14.047787-2.17929 3.251479-4.878597 7.023893t-6.505714 9.72228-5.951705 8.096082q-6.505714 10.829382-16.227076 23.804061-7.576984 10.829382-7.576985 11.90249-2.17929 4.325505-7.576984 3.251479-3.251479 0-5.397694-2.17929l-2.17929-2.179291q-1.072189-2.17929-3.251479-4.878596t-5.397695-7.023893l-17.299265-21.624771q-3.251479-5.397694-7.023893-10.275372t-9.203183-12.421587q-8.650092-9.722281-11.90249-15.153969-8.650092-16.227076-18.372373-10.829382l-12.974678 8.650092q-1.072189 2.17929-3.251479 3.251479t-3.769658 2.17929-2.698388 2.17929q-9.722281 7.576984-3.251479 18.372373 8.650092 10.829382 16.227077 19.998572t12.974678 16.746173q15.153969 18.372373 20.552582 27.022465 9.722281 12.974679 11.90249 15.153969 1.072189 2.17929 0 3.251479t-3.251479 1.072189h-25.950276q-3.251479 1.072189-6.505715 1.072188t-5.951704-0.553091-4.878597-0.553091q-8.650092 0-13.528688 3.769657t-2.698388 10.275373q1.072189 4.325505 1.072189 11.902489v11.90249q1.072189 4.325505 3.251479 5.397694t6.505714 1.072189h57.297327q11.90249 0 11.90249 4.325505v19.479475q0 5.397694-2.17929 5.397694h-65.947419q-5.397694-1.072189-7.576985 3.251479-1.072189 1.072189-1.626199 3.769658t-1.626199 4.878596v9.722281l1.072189 7.576984q0 6.505714 3.251479 9.722281t9.722281 3.251479h58.404429q3.251479 0 4.325505 0.553092t2.17929 0.553091l1.072189 6.505714q1.072189 5.397694 0 18.372373v17.299265q0 10.829382 12.974679 10.829383h31.346132q6.505714-1.072189 7.576985-5.397695v-39.997143q0-4.325505 2.17929-7.023893t6.505714-2.698388h16.227077q4.325505 0 8.650092-1.072188h28.130485q14.047786 0 14.047786-9.722281v-22.697878q0-8.650092-9.722281-8.650092h-57.297327q-4.325505 1.072189-7.023893 0t-2.698388-4.325505v-7.576985l-1.072189-8.650092q0-4.325505 3.251479-5.397694l7.576985-2.17929h58.404429q4.325505 0 7.023893-1.626199t2.698387-5.951704v-23.804061q0-4.325505-3.251479-8.096082t-8.650092-3.769658h-33.52726z" p-id="13820" fill="#9a9a9a"></path></svg>